<svg width="158" height="41" viewBox="0 0 158 41" fill="none" xmlns="http://www.w3.org/2000/svg">
<path d="M0.0968744 24.5682C0.807287 24.8104 1.58228 25.0042 2.42186 25.1495C3.27758 25.2787 4.12524 25.3432 4.96481 25.3432C6.11116 25.3432 6.95881 25.2948 7.50777 25.1979C8.07287 25.0849 8.44422 24.9154 8.62182 24.6893C8.79943 24.4633 8.88823 24.1727 8.88823 23.8175C8.88823 23.5107 8.82364 23.2685 8.69448 23.0909C8.56531 22.9133 8.31505 22.7761 7.9437 22.6792C7.57235 22.5662 7.02339 22.4774 6.29684 22.4128L4.69841 22.2675C3.50362 22.1545 2.5591 21.9042 1.86483 21.5167C1.18671 21.1292 0.702339 20.6125 0.411716 19.9667C0.137239 19.3047 0 18.5136 0 17.5933C0 16.4954 0.217967 15.6074 0.653902 14.9292C1.10598 14.2511 1.83254 13.7587 2.83358 13.4519C3.83461 13.129 5.16664 12.9675 6.82965 12.9675C8.99317 12.9675 10.7773 13.2501 12.182 13.8152L12.1093 17.1089L12.0366 17.2058C10.4382 16.6407 8.76713 16.3581 7.02339 16.3581C6.18382 16.3581 5.53799 16.4066 5.08591 16.5034C4.63383 16.5842 4.31898 16.7214 4.14138 16.9152C3.96378 17.1089 3.87498 17.3834 3.87498 17.7386C3.87498 18.0938 3.93149 18.3602 4.04451 18.5378C4.17367 18.7154 4.42393 18.8526 4.79528 18.9495C5.16663 19.0303 5.70752 19.111 6.41793 19.1917L7.9437 19.3612C9.23536 19.5066 10.2283 19.7649 10.9226 20.1362C11.6169 20.5076 12.0932 21.0081 12.3515 21.6378C12.626 22.2513 12.7632 23.0021 12.7632 23.8901C12.7632 24.9719 12.5291 25.876 12.0609 26.6026C11.6088 27.313 10.8661 27.8458 9.83275 28.201C8.79943 28.5562 7.41897 28.7338 5.69137 28.7338C4.56117 28.7338 3.54399 28.6773 2.63983 28.5643C1.73567 28.4351 0.855724 28.2656 0 28.0557V24.6409L0.0968744 24.5682Z" fill="black"/>
<path d="M19.0703 28.5159H15.1953V13.1855H19.0703V19.0464H24.8827V13.1855H28.7577V28.5159H24.8827V22.1948H19.0703V28.5159Z" fill="black"/>
<path d="M35.5313 28.5159H31.6564V13.1855H35.5313V28.5159Z" fill="black"/>
<path d="M42.3192 28.5159H38.4442V13.1855H45.2738C46.8077 13.1855 48.0348 13.3712 48.9551 13.7425C49.8754 14.1139 50.5373 14.7193 50.941 15.5589C51.3446 16.3985 51.5465 17.5368 51.5465 18.9737C51.5465 20.33 51.3446 21.436 50.941 22.2917C50.5373 23.1313 49.8754 23.7529 48.9551 24.1565C48.0348 24.5602 46.8077 24.762 45.2738 24.762H42.3192V28.5159ZM44.6442 16.3581H42.3192V21.5894H44.6442C45.7905 21.5894 46.5574 21.3956 46.9449 21.0081C47.3324 20.6206 47.5262 19.9425 47.5262 18.9737C47.5262 18.0534 47.3324 17.3915 46.9449 16.9878C46.5574 16.568 45.7905 16.3581 44.6442 16.3581Z" fill="black"/>
<path d="M98.8981 28.5159V13.1855H105.607C106.947 13.1855 108.069 13.2986 108.973 13.5246C109.877 13.7345 110.604 14.1139 111.153 14.6629C111.702 15.2118 112.097 15.9788 112.339 16.9636C112.582 17.9324 112.703 19.1837 112.703 20.7175C112.703 22.316 112.582 23.6238 112.339 24.6409C112.097 25.6581 111.702 26.4493 111.153 27.0144C110.604 27.5795 109.877 27.975 108.973 28.2011C108.069 28.411 106.947 28.5159 105.607 28.5159H98.8981ZM105.05 16.4551H102.773V25.2464H105.05C105.986 25.2464 106.721 25.1415 107.254 24.9316C107.803 24.7217 108.19 24.2938 108.416 23.648C108.658 23.0022 108.779 22.0253 108.779 20.7175C108.779 19.4743 108.658 18.554 108.416 17.9566C108.19 17.3431 107.803 16.9394 107.254 16.7457C106.721 16.5519 105.986 16.4551 105.05 16.4551Z" fill="black"/>
<path d="M129.169 28.4433V28.5159H125.052C124.939 28.1284 124.802 27.6844 124.641 27.1839C124.495 26.6834 124.334 26.1506 124.156 25.5855H118.925C118.602 26.7157 118.303 27.6925 118.029 28.5159H113.912V28.4675L118.877 13.1855H124.205L129.169 28.4433ZM121.492 15.9465C121.331 16.7699 121.097 17.7709 120.79 18.9496C120.483 20.1282 120.16 21.3311 119.821 22.5581H123.284C122.929 21.3311 122.598 20.1282 122.291 18.9496C121.985 17.7709 121.751 16.7699 121.589 15.9465H121.492Z" fill="black"/>
<path d="M134.023 28.5159V16.4551H129.663V13.1855H142.257V16.4551H137.898V28.5159H134.023Z" fill="black"/>
<path d="M158 28.4433V28.5159H153.883C153.77 28.1284 153.633 27.6844 153.471 27.1839C153.326 26.6834 153.164 26.1506 152.987 25.5855H147.756C147.433 26.7157 147.134 27.6925 146.859 28.5159H142.742V28.4675L147.707 13.1855H153.035L158 28.4433ZM150.323 15.9465C150.161 16.7699 149.927 17.7709 149.62 18.9496C149.314 20.1282 148.991 21.3311 148.652 22.5581H152.115C151.76 21.3311 151.429 20.1282 151.122 18.9496C150.815 17.7709 150.581 16.7699 150.42 15.9465H150.323Z" fill="black"/>
<path d="M84.8021 21.5505L81.354 21.5505L81.354 18.1025L84.8021 18.1025L84.8021 21.5505Z" fill="#FF4016"/>
<path d="M76.6129 33.1877L73.1648 33.1877L73.1648 29.7397L76.6129 29.7397L76.6129 33.1877Z" fill="#FF4016"/>
<path d="M71.0098 40.9458L67.5617 40.9458L67.5617 37.4977L71.0098 37.4977L71.0098 40.9458Z" fill="#FF4016"/>
<path d="M57.2175 40.9458L53.7694 40.9458L53.7694 37.4977L57.2175 37.4977L57.2175 40.9458Z" fill="#FF4016"/>
<path d="M82.2159 40.9458L78.7679 40.9458L78.7679 37.4977L82.2159 37.4977L82.2159 40.9458Z" fill="#FF4016"/>
<path d="M99.0253 40.9458L95.5773 40.9458L95.5773 37.4977L99.0253 37.4977L99.0253 40.9458Z" fill="#FF4016"/>
<path fill-rule="evenodd" clip-rule="evenodd" d="M54.2004 38.5754L68.8547 38.5754L68.8547 39.8684L54.2004 39.8684L54.2004 38.5754Z" fill="#FF4016"/>
<path fill-rule="evenodd" clip-rule="evenodd" d="M81.354 38.5754L96.0083 38.5754L96.0083 39.8684L81.354 39.8684L81.354 38.5754Z" fill="#FF4016"/>
<path fill-rule="evenodd" clip-rule="evenodd" d="M76.2633 32.3624L80.5734 37.9655L79.5485 38.7539L75.2385 33.1508L76.2633 32.3624Z" fill="#FF4016"/>
<path fill-rule="evenodd" clip-rule="evenodd" d="M68.9679 38.8568L82.5446 19.0304L83.6115 19.761L70.0347 39.5874L68.9679 38.8568Z" fill="#FF4016"/>
<path fill-rule="evenodd" clip-rule="evenodd" d="M74.5709 30.6745L82.5446 19.0304L83.6115 19.7609L75.6378 31.405L74.5709 30.6745Z" fill="#FF4016"/>
<path fill-rule="evenodd" clip-rule="evenodd" d="M96.7848 38.9641L82.346 19.7842L83.3791 19.0065L97.8179 38.1864L96.7848 38.9641Z" fill="#FF4016"/>
<path d="M64.9756 19.8264H68.4237V23.2745H64.9756V19.8264Z" fill="#FF4016"/>
<path d="M73.1647 7.75806H76.6127V11.2061H73.1647V7.75806Z" fill="#FF4016"/>
<path d="M78.7678 0H82.2159V3.44807H78.7678V0Z" fill="#FF4016"/>
<path d="M93.8531 0H97.3012V3.44807H93.8531V0Z" fill="#FF4016"/>
<path d="M67.5616 0H71.0097V3.44807H67.5616V0Z" fill="#FF4016"/>
<path d="M50.7523 0H54.2003V3.44807H50.7523V0Z" fill="#FF4016"/>
<path fill-rule="evenodd" clip-rule="evenodd" d="M95.5772 2.37066H80.9229V1.07764H95.5772V2.37066Z" fill="#FF4016"/>
<path fill-rule="evenodd" clip-rule="evenodd" d="M68.4236 2.37066H53.7693V1.07764H68.4236V2.37066Z" fill="#FF4016"/>
<path fill-rule="evenodd" clip-rule="evenodd" d="M73.5143 8.58338L69.2042 2.98027L70.229 2.19189L74.5391 7.79501L73.5143 8.58338Z" fill="#FF4016"/>
<path fill-rule="evenodd" clip-rule="evenodd" d="M80.8097 2.08945L67.233 21.9159L66.1661 21.1853L79.7429 1.35889L80.8097 2.08945Z" fill="#FF4016"/>
<path fill-rule="evenodd" clip-rule="evenodd" d="M75.2067 10.2716L67.233 21.9157L66.1661 21.1851L74.1398 9.54102L75.2067 10.2716Z" fill="#FF4016"/>
<path fill-rule="evenodd" clip-rule="evenodd" d="M52.9927 1.98169L67.4315 21.1616L66.3985 21.9393L51.9597 2.75936L52.9927 1.98169Z" fill="#FF4016"/>
</svg>
